<mxfile host="app.diagrams.net" agent="Mozilla/5.0 (Windows NT 10.0; Win64; x64) AppleWebKit/537.36 (KHTML, like Gecko) Chrome/136.0.0.0 Safari/537.36" version="27.0.5">
  <diagram name="Page-1" id="b8OI6zJFeM48B24cCunP">
    <mxGraphModel grid="1" page="1" gridSize="10" guides="1" tooltips="1" connect="1" arrows="1" fold="1" pageScale="1" pageWidth="1169" pageHeight="827" math="0" shadow="0">
      <root>
        <mxCell id="0" />
        <mxCell id="1" parent="0" />
        <mxCell id="BSuqBpXf2XemAeo1vDZb-1" value="" style="rounded=0;whiteSpace=wrap;html=1;" vertex="1" parent="1">
          <mxGeometry width="2330" height="1640" as="geometry" />
        </mxCell>
        <mxCell id="BSuqBpXf2XemAeo1vDZb-2" value="&lt;h1&gt;My Poster about Internet Addiction Disorder&lt;/h1&gt;" style="rounded=0;whiteSpace=wrap;html=1;" vertex="1" parent="1">
          <mxGeometry x="10" y="10" width="1410" height="60" as="geometry" />
        </mxCell>
        <mxCell id="Nic7iLbEG9tSwwlaVDGV-1" value="&lt;h1&gt;Heading&lt;/h1&gt;" style="rounded=0;whiteSpace=wrap;html=1;" vertex="1" parent="1">
          <mxGeometry x="10" y="170" width="1410" height="120" as="geometry" />
        </mxCell>
        <mxCell id="Nic7iLbEG9tSwwlaVDGV-2" value="&lt;img alt=&quot;&quot; src=&quot;data:image/png;base64,iVBORw0KGgoAAAANSUhEUgAABY4AAAHvCAYAAADzdUsBAAAAAXNSR0IArs4c6QAAAARnQU1BAACxjwv8YQUAAAAJcEhZcwAADsMAAA7DAcdvqGQAAEdHSURBVHhe7d0JmBTVuT/gT0AQEAiCiChGXFERI7hkXFEJ3OtC9Ab1rxiVaBSD0asmUWMkLjFEc8W4YOKuiUvcohElgWCCaJy4oSwqiggCKrKIgoCs/runq2f6DDMwYFQ07/s89XCqps9U9zA1VfWrr06t90lOAAAAAABAZo2C4+XLlsbC+R/EogXzY9nHC2NFbn7FiqXZV4HP0+I5U7IWsK77eM7UrAWs614eNyFrAeu6sS+Oy1rAum6zrzXNWsDnZb369WPDjTaODVu2iVbtt4lNt90pNt9+l2jSYqPsFatXp+A4HxjPnfVuLJo/N9ZbvjQarN8g6terH/XqrRfrrbde9irg87R49ptZC1jXLZrtQg98WYwb80rWAtZ1Lz4/JmsB67r2LQXH8EXIh7756HdFflr+SWzUoWNs1XXf2GnvnnUKkOtl/9Zq/gezY8Zbr8fHH8yMxuvXiyZNGkfD9deP+vXrCY0BAAAAANZB+eS23nrrRYN69aLh+vVj/rTX47kHb4q/3fLrmDT6n4UXrcIqg+O5M9+Oue9OjYbrragIjOvlVgIAAAAAwJdLvgi4UYP6MXPCczHqrmti7OMPZ1+pWa1JcD40nj/n3diwSaOK6mIAAAAAAL7c8lXIKz56P1549M5Vhsc1JsLz3p8VH82ZERs2aZwtAQAAAADgq2LFwg9j9NA/xhsvPJUtSa0UHC9buiTmz50ZGzRqmC0BAAAAAOCrZun82TH+icdiwQdzsiVVVgqO5858Nz5ZssjwFAAAAAAAX2H5YSveefmZePmfw7IlVZJ0OF9tvHjBB7HBBo2yJQAAAAAAfFU1rF8vJo9+aqWq4yQ4XjBvbsTypVGvnmpjAAAAAICvuvXWWy/mTJ4Q0ya8lC0pSBLiRQs+igbrN8jmAAAAAAD4qqtff714541XsrmCJDhenh/buF79bA4AAAAAgK+6/FjHc6dNyuYKkuD4k2XLol699bI5AAAAAAC+6vLDVSz4YGY2V5AExytWLKl4EQAAAAAA/xnyifBH788qzGQ8BQ8AAAAA4D/cJ8uXZ60CwTEAAAAAAAnBMQAAAAAACcExAAAAAAAJwTEAAAAAAAnBMQAAAAAACcExAAAAAAAJwTEAAAAAAAnBMQAAAAAACcExAAAAAAAJwTEAAAAAAAnBMQAAAAAACcExAAAAAAAJwTEAAAAAAAnBMQAAAAAACcExAAAAAAAJwTEAAAAAAAnBMQAAAAAACcExAAAAAAAJwTEAAAAAAAnBMQAAAAAACcExAAAAAAAJwTEAAAAAAAnBMQAAAAAACcExAAAAAAAJwTEAAAAAAAnBMQAAAAAACcExAAAAAAAJwTEAAAAAAAnBMQAAAAAACcExAAAAAAAJwTEAAAAAAAnBMQAAAAAACcExAAAAAAAJwTEAAAAAAAnBMQAAAAAACcExAAAAAAAJwTEAAAAAAAnBMQAAAAAACcExAAAAAAAJwTEAAAAAAAnBMQAAAAAACcExAAAAAAAJwTEAAAAAAAnBMQAAAAAACcExAAAAAAAJwTEAAAAAAAnBMQAAAAAACcExAAAAAAAJwTEAAAAAAAnBMQAAAAAACcExAAAAAAAJwTEAAAAAAAnBMQAAAAAACcExAAAAAAAJwTEAAAAAAAnBMQAAAAAACcExAAAAAAAJwTEAAAAAAAnBMQAAAAAACcExAAAAAAAJwTEAAAAAAAnBMQAAAAAACcExAAAAAAAJwTEAAAAAAAnBMQAAAAAACcExAAAAAAAJwTEAAAAAAAnBMQAAAAAACcExAAAAAAAJwTEAAAAAAAnBMQAAAAAACcExAAAAAAAJwTEAAAAAAAnBMQAAAAAACcExAAAAAAAJwTEAAAAAAAnBMQAAAAAACcExAAAAAAAJwTEAAAAAAAnBMQAAAAAACcExAAAAAAAJwTEAAAAAAAnBMQAAAAAACcExAAAAAAAJwTEAAAAAAAnBMQAAAAAACcExAAAAAAAJwTEAAAAAAAnBMQAAAAAACcExAAAAAAAJwTEAAAAAAAnBMQAAAAAACcExAAAAAAAJwTEAAAAAAAnBMQAAAAAACcExAAAAAAAJwTEAAAAAAAnBMQAAAAAACcExAAAAAAAJwTEAAAAAAAnBMQAAAAAACcExAAAAAAAJwTEAAAAAAAnBMQAAAAAACcExAAAAAAAJwTEAAAAAAAnBMQAAAAAACcExAAAAAAAJwTEAAAAAAAnBMQAAAAAACcExAAAAAAAJwTEAAAAAAAnBMQAAAAAACcExAAAAAAAJwTEAAAAAAAnBMQAAAAAACcExAAAAAAAJwTEAAAAAAAnBMQAAAAAACcExAAAAAAAJwTEAAAAAAAnBMQAAAAAACcExAAAAAAAJwTEAAAAAAAnBMQAAAAAACcExAAAAAAAJwTEAAAAAAAnBMQAAAAAACcExAAAAAAAJwTEAAAAAAAnBMQAAAAAACcExAAAAAAAJwTEAAAAAAAnBMQAAAAAACcExAAAAAAAJwTEAAAAAAAnBMQAAAAAACcExAAAAAAAJwTEAAAAAAAnBMQAAAAAACcExAAAAAAAJwTEAAAAAAAnBMQAAAAAACcExAAAAAAAJwTEAAAAAAAnBMQAAAAAACcExAAAAAAAJwTEAAAAAAAnBMQAAAAAACcExAAAAAAAJwTEAAAAAAAnBMQAAAAAACcExAAAAAAAJwTEAAAAAAAnBMQAAAAAACcExAAAAAAAJwTEAAAAAAAnBMQAAAAAACcExAAAAAAAJwTEAAAAAAAnBMQAAAAAACcExAAAAAAAJwTEAAAAAAAnBMQAAAAAACcExAAAAAAAJwTEAAAAAAAnBMQAAAAAACcExAAAAAAAJwTEAAAAAAAnBMQAAAAAACcExAAAAAAAJwTEAAAAAAAnBMQAAAAAACcExAAAAAAAJwTEAAAAAAAnBMQAAAAAACcExAAAAAAAJwTEAAAAAAAnBMQAAAAAACcExAAAAAAAJwTEAAAAAAAnBMQAAAAAACcExAAAAAAAJwTEAAAAAAAnBMQAAAAAACcExAAAAAAAJwTEAAAAAAAnBMQAAAAAACcExAAAAAAAJwTEAAAAAAAnBMQAAAAAACcExAAAAAAAJwTEAAAAAAAnBMQAAAAAACcExAAAAAAAJwTEAAAAAAAnBMQAAAAAACcExAAAAAAAJwTEAAAAAAAnBMQAAAAAACcExAAAAAAAJwTEAAAAAAAnBMQAAAAAACcExAAAAAAAJwTEAAAAAAAnBMQAAAAAACcExAAAAAAAJwTEAAAAAAAnBMQAAAAAACcExAAAAAAAJwTEAAAAAAAnBMQAAAAAACcExAAAAAAAJwTEAAAAAAAnBMQAAAAAACcExAAAAAAAJwTEAAAAAAAnBMQAAAAAACcExAAAAAAAJwTEAAAAAAAnBMQAAAAAACcExAAAAAAAJwTEAAAAAAAnBMQAAAAAACcExAAAAAAAJwTEAAAAAAAnBMQAAAAAACcExAAAAAAAJwTEAAAAAAAnBMQAAAAAACcExAAAAAAAJwTEAAAAAAAnBMQAAAAAACcExAAAAAAAJwTEAAAAAAAnBMQAAAAAACcExAAAAAAAJwTEAAAAAAAnBMQAAAAAACcExAAAAAAAJwTEAAAAAAAnBMQAAAAAACcExAAAAAAAJwTEAAAAAAAnBMQAAAAAACcExAAAAAAAJwTEAAAAAAAnBMQAAAAAACcExAAAAAAAJwTEAAAAAAAnBMQAAAAAACcExAAAAAAAJwTEAAAAAAAnBMQAAAAAACcExAAAAAAAJwTEAAAAAAAnBMQAAAAAACcExAAAAAAAJwTEAAAAAAAnBMQAAAAAACcExAAAAAAAJwTEAAAAAAAnBMQAAAAAACcExAAAAAAAJwTEAAAAAAAnBMQAAAAAACcExAAAAAAAJwTEAAAAAAAnBMQAAAAAACcExAAAAAAAJwTEAAAAAAAnBMQAAAAAACcExAAAAAAAJwTEAAAAAAAnBMQAAAAAACcExAAAAAAAJwTEAAAAAAAnBMQAAAAAACcExAAAAAAAJwTEAAAAAAAnBMQAAAAAACcExAAAAAAAJwTEAAAAAAAnBMQAAAAAACcExAAAAAAAJwTEAAAAAAAnBMQAAAAAACcExAAAAAAAJwTEAAAAAAAnBMQAAAAAACcExAAAAAAAJwTEAAAAAAAnBMQAAAAAACcExAAAAAAAJwTEAAAAAAAnBMQAAAAAACcExAAAAAAAJwTEAAAAAAAnBMQAAAAAACcExAAAAAAAJwTEAAAAAAAnBMQAAAAAACcExAAAAAAAJwTEAAAAAAAnBMQAAAAAACcExAAAAAAAJwTEAAAAAAAnBMQAAAAAACcExAAAAAAAJwTEAAAAAAAnBMQAAAAAACcExAAAAAAAJwTEAAAAAAAnBMQAAAAAACcExAAAAAAAJwTEAAAAAAAnBMQAAAAAACcExAAAAAAAJwTEAAAAAAAnBMQAAAAAACcExAAAAAAAJwTEAAAAAAAnBMQAAAAAACcExAAAAAAAJwTEAAAAAAAnBMQAAAAAACcExAAAAAAAJwTEAAAAAAAnBMQAAAAAACcExAAAAAAAJwTEAAAAAAAnBMQAAAAAACcExAAAAAAAJwTEAAAAAAAnBMQAAAAAACcExAAAAAAAJwTEAAAAAAAnBMQAAAAAACcExAAAAAAAJwTEAAAAAAAnBMQAAAAAACcExAAAAAAAJwTEAAAAAAAnBMQAAAAAACcExAAAAAAAJwTEAAAAAAAnBMQAAAAAACcExAAAAAAAJwTEAAAAAAAnBMQAAAAAACcExAAAAAAAJwTEAAAAAAAnBMQAAAAAACcExAAAAAAAJwTEAAAAAAAnBMQAAAAAACcExAAAAAAAJwTEAAAAAAAnBMQAAAAAACcExAAAAAAAJwTEAAAAAAAnBMQAAAAAACcExAAAAAAAJwTEAAAAAAAnBMQAAAAAACcExAAAAAAAJwTEAAAAAAAnBMQAAAAAACcExAAAAAAAJwTEAAAAAAAnBMQAAAAAACcExAAAAAAAJwTEAAAAAAAnBMQAAAAAACcExAAAAAAAJwTEAAAAAAAnBMQAAAAAACcExAAAAAAAJwTEAAAAAAAnBMQAAAAAACcExAAAAAAAJwTEAAAAAAAnBMQAAAAAACcExAAAAAAAJwTEAAAAAAAnBMQAAAAAACcExAAAAAAAJwTEAAAAAAAnBMQAAAAAACcExAAAAAAAJwTEAAAAAAAnBMQAAAAAACcExAAAAAAAJwTEAAAAAAAnBMQAAAAAACcExAAAAAAAJwTEAAAAAAAnBMQAAAAAACcExAAAAAAAJwTEAAAAAAAnBMQAAAAAACcExAAAAAAAJwTEAAAAAAAnBMQAAAAAACcExAAAAAAAJwTEAAAAAAAnBMQAAAAAACcExAAAAAAAJwTEAAAAAAAnBMQAAAAAACcExAAAAAAAJwfF/oMXzZsfMWbnp/cXZEmD1lsS8OXNjZm6atzBbVGdVfWd+sCRbtiY+bf+1s3h+ts45C8JfC1hDixbFrLnzctOiWLw8W1YHi+fl+2T9smV1sfijtesH65IlixbG3Pm5acEabDR5SxYX+s1fHEtWZMvqoHJ9a9gvb8mCrO+iNXivy4rvc2EsWJYtAz4TLXfqFjvv1yM3dYsObbOFq9UuOpTl++Snstg0WwpftKUfL4kPF+anZbE0W1ZnK1bEwoq+uWlNd3Y5letew75r2491z3qf5GTtmPrKs7Fh06bZHKvy1g29osvAN7O5Vdj+RzF62Inx9Xx7xLnR6uTHKhavpEGzaLPjfnH62afGyftsFY0aZMtLrap/4pD445TL41vZXNHMYQPi6DP+FGNLzygbtI5Df3x1XHPSLtGi2jpX+RkbtY7tuhwa/c8/MY7s3DoaZYvr4vXre0XZFVXft/fN4+OG7tkMdbZ4dh1+/8h5L3539PfjkknZ7Cpse8ZN8cTxm2RzmeVzY+ivLo7+D72ZhDGNtts/BpzfL/ruvIq/mR9MiNsG/S4uGZr2jfpNo1PP42Lg2YdE169ly2qyVv2fj/67XRIPZXMradgyOnU/ahXrXhJTR9wQJw/4W4wvzajrt4x9ju4X/3d6WWzRMFtGnS2aPSVrsWpz4uZ+F8fAWn5cjVpuEl0OODB+euRusWPL9bOlpV6Js/7rd/FINldd89abR7fDc/uuQ3aMbRpnCxOr7h8Nm8eO+/aMS07dN3Ztni2rZt7Lf4/zBj4cw2ZnCzIb73JgXPzjw6Nn62xBYmlMe/KB+MGvy+OV5NrQ+rHjfx8f15+2S7SvcburpV/95lH27SNj4Im19WNVxo15JWtRF+89cW+cOnRuNreyphtvFt17dIs+nZtFbb+Oc8ePjEvvmRBvloap9ZpE2X/1jNP33SSa1lLqsmDKmLju7vIo/zBbkGm59S5xytFlUdYiW1BNrf06lcV5/7NLbF/rrn1xvPbEyPjVXyfH3NLz4Babxbd7HRR9OzXJFqSWzJkcN945Ika8k4bMDdttGycesU8cvMWaHElT6sXnx2Qt6u6YOOG2H0aHOp32fxST7+gRd+ROQff6+fDosdOG2fJVeHtIXHTWwGzm/Oh/32GxcTZXm1n/2CsG/zabydnjZ8Pj4M6rWdeCF2J43x/G09lsQbvY+YTz48CDukbLDbJFmWWzXohn7x4Yw//5Trak1Haxx+kXxYF7bxkb1M8WZT6eNjz+fv1F8WwdziVYtfYtZU1rZkXMfnNCXP+Pd2JqsvuoF1t07BQ/2LtNtK72+1pq6byZ8dCoCTH8nWqFR/UbR8cdc/ufPVbVf1lMyh0PXf/czPiwdH/XdKPosXenOGrL2vboa9svtXDK+Dhn+IzKkHzTPfeOS3ep8eB9Je++VB4XPrsgm4vYs2f3+H5FIEddfbx0efS/9e/ZnIrjdcey+TFz7GMx4MRe0a7sf+OBd7Pl/yav33Bk7HBqtdA4b9nseHRgn9i175/i9TWpfFg8O14vvz3O7NUt2h1xTTw3L1u+OlNuj1NLQmNYpy2fFr/re0KcXC00zlv8+hNxQd+To/+oqp1SqXmjro1vdP9JXFA99M1bviDGD70hDuv+v3H5uM+mf62WzM36fj8ueL563wXx+IAT4pvnVQuN85bPjadyB9vfPPnhmLiGhWDw77J47ntR/qd74rBjzonev58cdd31FM2bPT0eufl30fOIn8UPRq5p75wl8+KVx++P3kddHBeNWZQtrPLGA1fEruesHBrnzRrz9/jBcVfEzdOyBZUWxchBF0e3y6qHxnlL45W/3BLd+t0f5R9liyrl+v36ZzX3Wz4v93PK9fvR3+MN2ytfsAWz3o4/33VX9L15Qkyvoeho+hMPRN8/VAuN81YsjPKhD8Upt9ber89vVw5/8+ZOGhOX//KB+POsbEGJ6U8+VHu/8eVx7q+HxIga+uVD4xfuvTvOHVotNM77MPcZ//D7OPuJlQP0Ba8+Hn2vGLZSaJy35J2JcePgu2PQqyvt6eGroW2jqKkeanUarCIMq1272Ovnt8d3Dlk5NM5rsHHX2Ov0G+KEXu2yJUVl0evKG+Pg/VYOjfM2aN8jDv7Z7XFw12wBfC6WxbgnnorzRlQPjfNWxNQJY+O8+1+LCSsdOxa8O+65OO2PY1cOjfOWL4oJ43L9/zA2nqnxVDK37n88FQOfqRb+5i14P4YPHxWXjKmp49r2q2bp7Lh/ZFVovEbmvRU3lYTG/HuoOF5LpdW4u5/6mzi9c0VzZc23im/tu1WhIrekYrhNrwvi1z2za69zX4m/PTsmhg99JmYWD5qbHxJ/fOry+FZpRVNt/VeyWexxyA7RJpuL5y6LrY68JwrHx5vFcYN/Gxfs0TwWvfFonHnq/8WT2blz5wuHxT9O2qwwk1PbZ/x4+kvx5HPPxP0jXq0KtDr/KHeSemJst8ojg7djcK+eMWBsNptRcbx2VBzXVWnFccfo96sjYreK5Strvk3X2KfyKuiSePySE+K7j2Q7ni2/FZedd3gc0nJuPPbnO+PyuydkodVuMfgfA+KIZhUzBS/dEB1z22plLLXlbnHm//tW7Jyv8P3g1bj91ofjqZmFL+U2nrhy6C/imMoNNudT9S+pOG61f1z2472isoZ6yXvx2K23xkPFas5mh8eQf3wvKo+Dn78hOvR7rLBdtyqLy676XhyySe7n8cGEuPzcgXFP1m+LkwfHv/q1L8xQJyqO66q04rhDnHzBgdGlYvnSmPbqxCgf83yMnFR1GLnjyRfEkN6ldwmUVAy33C0u+sEu2b5wXrw8enKMfu75KK8MdRtHr4suiqu+WVq9UFv/nCVz4q9/fDgeKQa/Gx4YDzxweOyazcbsJ6P3cffHixUzm0f/y/tF/07No9GSeVF+/y1x3N2TK74Sm/SIYXccGtsU5mLxv34fu170fGG7q5/7zBcdGyfny6GXzIg/X31LDBxdCKgbHdQvXvzxjlV3+Iy5P3Y898lCv5a7xEUXHx7/tfH6ER9OjkGX3RL3Ze+z/bEXxMjqd1KwSiqO10xpxfH2+/eMwzevaFaYO/WluP/J96IYp3Y+8vi4ZLeSqtwpT0Wf346Pwp62WXTvc3D06dAolsycGIP/UB5js+szWx3aJwbtW7Kj/XB8nPvLp+K1ipnWceQpB8eRHZpEw2ULY+zIYTHg8fcqvhItu8R15+2R2yIzc8bE6VeUx/SKmSZRdsTBceJOuX65LWnCX4fG5c/Pr/hKtC2LG87apWr/mfPekw/EqY9mf0CabRFH9tojuud2hW+OfSFuHzo5d7RR8YU48od9ok9xhSvejhsvHBJDK47vG0XZkYfH6d9oGU1z65v+0si48P7J2c+mQ5x9ac/Yr26FWJRQcbw2usZeJx8Wm9YQrha0i8337hQtK0LUOfHqdYfFvaPSiuOPJg6PybUVOs15IR68Z0ihfci1cd4JXSO/qmVvl8erk7JtrJq5L18Uf/9HNpPT66qno0vFaemcmDbqhfigYmk1H78Wo2++J7K9a7Q84fbof8h2haB6+Zx4d+SD8fSr+eridrHdt4+NndtnFcwflMcjp5wTowtz0eG0u+OEA7YszJT2a7pzdOl1WHRolW2Ybw+JO84aWLk+1pyK47pb+tb4OGNYFp7WaxE9eu4YPVvljvOWfxTPPDk27pteCI7W3/Ybcc0BraP0PrwPJ4yOc0a9n81FtGjbLnru0Lqiunjp/Jkx7PkZVWF0w/Zx/vHbx9YlJaWzxz0T55Vn22qT1nHIXlvHvhtHTH1zctz3zMwo7AkbxyFH7B1HlERSa9svtSLGPTEqrn4tvZpct4rjRTH8oX/GfdUu/qo4XnPVK44Fx2upNFStc/BZEvxud/6wKD+1KqStsPjtuPOM3nHmsGxj6355vHnzIVF5l93q+tdodtxyRLf4ScWZbLPcex2ee68lB95Tbo8Duv1fVGS5jY6Jh1++IPbNwt/Vfsb3x8RlJ+YO5LMg+Os/uD9G/2SHwkwNZt5zUuxw/jO5VqPo3WvPeOCR3BFIjuB47QiO66o0ON4//vD8OXFQxfLVmPZw7H/ErTEx397xe/HEbYfHtiVVCBNv6x/7Dy4kM53OvimGH5udXi5/My4/4n/j6uwuuE59r4gH+neM9K72fGXvyfHdoYVT5Ua9fxGTz8uuzHza/qXB8dbfi3/de3hsUbE8k3z/9jHgocFRzIAfv6RXfLciMdskzrz3pjh364rFBQtz37d77vvmL1q3OiqGDzsuOhW+Qh0IjuuqNDjeLW756/HRrWJ5lXkvPxp9zhkehWivVfS/5udx9nYVMzklwe+Wh8fI3x2Y+y0vtTSmDf999Bo0Jrsws2Nc9UC/6FV5N+xq+i+fHoO+d0UMrkiINonzb70gTs4Kl2b95br45tWvV7R3Pe0X8cC3S7faRXHfhefG+c/l26X95sV95/4szq/IPap/lrzSr3eIi+48K76bDXUxctAZcdLwfCvX73e5ftk5b4VFuc9xdO5z5LfXlj1iyD2H5j4pdSU4XjOlwfF+J/aLs6sdCi54aWj0uWdqYabLwfHw0cW90sIYOvj3cWPFlxrl+h6b61syZMOcMXH2FeVRcbTToFNccuk+0Tk7sZ377JDo++DbFe3tex0fl+9dOkTE4hhx621xXUWq3DL6/uTo+Harii/Ea4/k9m3/LJwtdz2mb1z4jXSIiNceuS339fzlmPpx8Cnfj1OK+8ElU2PQxUNjVP48tvG2ceG5B0XXkvPXBeMfj75/mBgVdV275T7jkdlnnPJUHPXb8RXLG37zsLjviPTY/bWhv49znyg8OKGmnx2rJzj+9+tw5gNxwt6FnduyKffE4J9cW3GBozQ4rj60RK1OuD0uOqSwY6tzn+gRfW68KLbNF0zUOBxFzXpc8XTsle0L3/1L77jhtuxgusJhue95fuF75o41Jl53WNxVcSpasq7cljrtwWPjlntX0e+3uX4lATdrRnBcV0viyUdHxR0Vv4o1Ba2lX28RffrsHgcUf7RLZsTVt4+PcRUzDaLLgXvFD7apdlVyxYIY/ufyyoB16732i/M7Za9ZOjtu+v1L8Ux+V9mwbZx5bKfYuaR7MoTE9t+Im/fPDkzXtl91M16LMx6ZljtCiNh0m7YRb8yI/DWqugTHVYF5vdhzm43imTcKUbXgeM0ZqmJd1ihfDXxXXLB9Nj/imuyg91OYNSqGFMqfchvoqfHT0tA4b8sT45LjsoPmxffEnSMLzTrZaJe44M7fRO+s+1vX3xAP1HZXwLzH4oyK0Din+yVxRa9q7wPWMRMfe6wQGudOOvv9OA2N87Y9/qqYMOyOeCk33XlYy2xpzj8fqgx9Y7cfxp0rhb55TeOgn58ffbOd6eIH/haPF6/6ftr+q1N/q9jtG1k78V5Mnd0y2rTJT2Wxd2lonNekfexcTNDmvJdVVsHnr/lOh8ZdA3bLKm/nxOA/ZtW6dbJ+tO9xUtzft1hH+EoM+tMa/DbX3zy61HLF5ONFVU/NbL9J9a22cbRZeUPOmR7lxcyjfVn0SkLjvOZx1LeL90hMjvtGzcnac2La3Oaxcev8tEuUlYbGeY03iZ2Kd+LOfT8qb1CAL0DT9ptVVfyWmj81/pXlydG2S/QpDY3zWu0SJ34z2/kuGx8jSo6Jlyyu2uo32aj6uMKNouZsYn5MmFTcWW4b3TtXW1/O9mW7ZO91eQwdXXxzufW98mohNM7peug+SWic17RTt7jtZ8cXpoNLwuHFywphck6bjVb+I/C1piu/B/hinRgHdi3uQObE5L8UQuO11qQqOVpW54dLt4oGxfLJpUtyW27djLv3onjwuvz00xj+l9LwN29IzK88T22Uf7xQpmt8rSIUzlkwLl5NQuO8ITF0bHFZq2i/93eyNnyW5sWE4q/d19rFN1eqzm0Y+3YqPvHxw3jyzarh02a/OjkLjXObX6ddVw6N8+o1jR49to/i6d6kCe9m1cC5Te6tdwrhb87OZR2T8DevyZY7xpXH7VeY9twoW7r2/RIr5sdD/yiExtGsQ3y/yxpkRktmxO3FKuuv7xh9tl6bQXKojeB4XdNgq+jff79s5u14dGShmmKtjXkmnsyabQ7as/CQvmr23beq3Hfs62tYxdq8e/Q/qXi1aET8rTxrJubHoz8bEH+raO8ZV19aUkUN66S58fxLWZjUcK84ZOfcv8uXxMTny2Po0CfioRHl8dS03K9/q5bRJj81q9ozvvBM1UZwxLHfqrrNvbr6nePMG86Pm3+Vn74VW2TnwJ+2/2otfzP32bJ2bBXbFs8NYpPoe80d8dLQ/PS92CdbWmVuTCveor/11rlTbvjiNN/rwDi5eL3m6VeivK4XTjLb9OpZWck87emXo/irvVrLp8fo8Vk72sc2Jfext++yY2V18rDnC5XHlUr7Ndwudqpp5IiNmtW8byw5UntlUjHkbhXfvfQX8a8789PhUZYtrTIvphdPOLbcvPLEAL4IC6a9nQ0NEbF525ILrdPfLtzxltNyh82SYSGKOm+7VdaKeHNGVXy1ybZbVL7+XxOqHSuvmB0TiveSN9gsOpSsslKDRrFRTWdB9UquEk+fW3mRdPLUYoi8WZRtnw97l8fc6VOjfPTEGDV2crwwfXGs36xJtMxPTUu+R4fc67Pm9PFvVQvgFsdrk4tLNomOlftj+OJse9ah0T4bwmLZlOEx9FNW1+7Vpnie+FF8PLtddOh1Thz989uj/8Br4+hTT4kuNe6gtowNixd/FsyOcVsfFgeeemWcdOXdcdL5F8XBvbpGTZv1uy8Mj3Gj8tPImDwjW1jU9pzYtJizLX0n3n0sa5eqJaSemzsHKNqg1UpXeOGz1aRR1PjY1fWyf3Omzi5eFVkSr04rtpvGoZ1Wkbo03TRO/O/O8YPuuanLRpVDXUydWYyQN4ou7fPh64r4cNbsGD1xRjzz5swYN2tZrN+kYbTITxtU7UjXtl+pd8eOj8cqNsIGccABW8cWdU4rl8Xop17JAvON4oR92tb8M2Ot1fm/gtp9PG92zMxtFDVNH9a9DKpSo857RHGX9PprtTy+9cOa15efPiyp+n1r0qtZK2KXjlUH34lttq5a3xvFQ/u669xlz6wVMXbSykH34pG/jjMeKfwgOl94SRy3aUUTvgBLYt6cuTGzxmlBSdXipHj++azZfpNoPuVv8d2De8f+/QbGyQOujP7nDYyjeveOb5zxcLyQHGG+F8+NKx5cdo59dsqatWizc1kc3D0/dY5tK/Zun7Z/Ncs/ilmln3HS83H5GRdkFc1N44hB/eKgapXUtZn50J1xW/bWtj2kLB3+Aj53m0eXwuDHOdPijTUtgW/coapKd8r03BZfg+ULY/bceTGrOE15JQZdeG02TEV+fOQjo1vp9rNlz7jqfwr3wy9+9Lrodtnf45Exr0f5k0/G+f2Kw1vk+v300Cir7Nc4WhSvO706MV5e+Xl78eL4khB62ow6hdyz/vJY/CHbXrfpvku14Trgs7N00cKYO784zY83nx8ZZxeHqdi8LM4rGaf4vcqTzIitSgPlUpu0rKxWnj6zZIfbtmucnX2vJf8aEqfeNSZG5Y5Bx+ZOOq8b9EDcX5HHNor9jtu9cniL/PATlSPyLXs7JhQL+EssmFwVcseMuVl7fkx4q3h1qkm0bPB23PZ/N0Xfa4fG5fc+HoPuGhaXXvv7OOr/Rq78wL2G28aJR26W2+PmTH0qTh9cHkNfy73P1ybGXbfeG4Oyw/StDu4WB6uq4IvW9pTYb9d/Y7VxzgYNizu5xfG1nnfHCcd9J3bYabvYeOuuscNBJ0avXwyPU/tWu/zZuVnlA/WWNewaP/rF+bHfQWXRvv2W0X7XHrHHcddG/8FXxl7FILhG7aJDWY/Yeb8T4+Czbowzr/xObFqx710Ss566ISpGeqrwUSwrbt7NNo0OKz23qF302KLkqk7zdrFH1oTPzvrRpHis+N77MbXq8R6VJs2oGsM4PliQVQzPizeLhQP1N4qta7zbrahBbNq+TXTZKj8VixcWxaT3ik+1axhfa/B+3Hff3+Och16K6/8xPm4aMTaufmhUnHbfKzG6JHNa+34lSh5q12T7TnHUKrfv1NJpr8ftbxTWv0XZDrFvjXcd8WkIjv8NHj27W+ywe83TT4rlvmtiy62icp/17uwabzF9/fo+Na4vP/3XnTVXKbdoUsvtcPWr3UewprbZoTJ4fiv3fhMLRsVPzvhT4cF8nX8UN5xQl3GZ4bNSHv17nhDfqHH6XTyVvSrv4+zfaDkpftP32ng8d4LZvGIYh5bZLfIRM5++NQ7r/3BU3cyaU5k+56uRs+aa+LT9S025Lw4r/YxHXxJX5x+d+42j4g+P3BGD96vbXnXe8zdEr8uyurB2R8XgPjXVhcHna+sOxd/D9/OFgWuoVf6aaWZezKyp/7Th0fuYn8U3i1O/38Xg/IPqduoRt9zxi2oP1ctbP3Y95acx7LwDY9fcgfq0Jx+Os869Lo677P7Cg+q2Lourbqrer0P07JHVeCx5Ps66bkzMK6menvf07+N7D1Q+JjN/vrta88bcH0dmYy3nH8R31RGf9g8J1F35vb+Pvr8oTnfF2fdPiPeiWZQd2Tvu6r9LbF7LmUfTRrVcxSytAE7Uj+0P/X9x3TG7xPa5Xdl7Y8tj0I1DYsBdT8WI/JiN7TrG2T86Ph0zOZpE18py/7lx292jI3u2UIUlM0bHhfeX7tFLNsbi61ouiyduHhJ/zq2jYb66uEWTaFr8TLMmxOVXjYwXqm2nm+x2WNzYvyzKWuYOi6eOiRtvzb3PWx+P+19bmPvgW0Tf/n1j0P61BOfwOdr2mB5V1cYTh6yy2njjfUbGz35f03R7HJy9Jm/DyqEqWkXLtg1j2ccfxdy358THxSCs/oax6X9fHCf0Kgln2zeL4p6ywcbtYsPczu/jOVNi7vyqjavBxmVx4Lnnr+IOuP1jv1Muiu+cfkrsUdYpWuZ2tcvmjI/Rt50Sg39beovsg1V31NXfMjr3vSh2rgys2sXOp/9f7LF1yblybnt3AzyfvRbRdfts57J8Rtz01MxYWMxlc/LjBV89pmRnU7K7qlzaYoO1u8u78kLKivjXY6Nj+Ae5I9x8lXDThtGkuL/74J24/v5XYlxpoL22/SosiuGPTyycUzdsG98vSx/2t0pLZ8fdj79TGN5i423j+zutehxk1k7xv5B1ybI6nBmuS0pu36nuuV+fG3dWnPNuFRdcdWJsZ0/Ll83zT8RDURaDhz4SEyqGcbgjJo+4Is4sPmnqlVvjkmHr6jbbMBuzuDA1L55/v3RffLfX9+O7D62+dnHxpPuid7/HsnB8qxhwzXHRqbbzePgcLS45SF4bq++/fjaGcGGq3H5eHh4nnXBxnPSX6mXOS+ONP98Sx/3q7/FiMevdsKTfpPI4q991MWhCWlZcduJJlQ/nm/f4LbFrr3Pjm8f9LL7Z+4zY9ZLnY94u28WuhS+v1uIpw6PPuU9mVcmbx/m/ODR2tL3yeWpcCFMrpmbFX775UX7/A9FnUHmMraGqfu0sj+n/HBYX3jMmXitWL+XWXRnivjMhBg16JO6amt7617KsW/StLGF+Nk6/4Kbo+8t8yH1THHXVs/Fm482ic61Pes+ZOzlGTW8dR/bvG/flxzP+6fFx16V94vROWUC9aELcODK9ErXgtfI497flUV5c3CBftZy1F0yN2wbfG5e/VOfBX+GzkVQbvxMT/3TjqquN128YDTaoZcpekvfqU0NiXPkL8e608THuthPjF8f3iKvPOix+1efE+PvLH2Wv2jA6/PfpkR8ZrsILI2P0qOExccKUePfFe+LBs7rFr047Nq4+qVtcffXwmJWFTg026xkHHldo10WDVp2iy3G/jBOOK61wfieG3juk5Hv2iO9clYXgdz0Q39lvy2jwwZwovlP4vHTco3PsmV2zWDhxbJxx68g4565Rcc7tI+KM4TNiYbuNPtuhyObPjGdmNYtDDu8Wv82PS9xnv7im795xwpbZFr7knbhrTA3lw2vR78MJr2YP6qsXe3ZbeXzkVZn03Ph4suJUvGkcccDXY1MJ52fCj/Xf4NBBI+PV52qertg3e9GamD69csy32LR1jWOcbveDu2pcX37663E1V/V+uDA9eK60iuC3TiZPiuKNtF/Pvd9KY6+JU28v3Fb49R9cHmcbZJEvXFkMzh5ot/LUr4ZxffMaRt9fnx9HlG6IX+sY5/748Mptc+ioF7JWTmVxU354iKy5Jj5t/1JbHxePZGF3fprwzCMx+aHz45iK+9bnxuOX/STOebr27X/euDvjsKPvjMLQrFvFgAd+E/2qP4QLviDTpxaD241i8zUu1psT06ZkzWgebWrqv+UhcX/FGMKF6cXHrolXbj0pjqo4r54XI68eFOc/V1UyMW/kLdHzt69ExXHvdj3igfuuiUkPFPq9eGWP2DWfoS2fHIP/99q4uXgbYd6GO8ZVvzs+ehbfw/JFMWv2vJiVP0vtmPs+F+xbNdTE1m1rHXZi3oRHo3e/R+OVirnN4/ybfhInG6OCz9l+RxfC1IrpZ9+Phwf2jcsPzoZqmDUmBtw8psaHqy6o7UrOipqXL3hpWJz+yNRCsLV5l7h8QL94+KLj466B/eKu07pERaHWivfi/sFD4s+l+9J6LePbJx8RR1aOt7Q85n6YH1Yjt55mHeLss/apCq/atq4cJqPU9r0Ojj5blFQyN2gW3XuXRdds9r2xk6uGu5j+bJx965iYnq8Ua9whTv9J7mdyWe5nc1m/uO8n3aKsYrSNhVF+z71x3Wuf8moYfApptfHwGF5yaFuTZXOmxKzcjrSm6YPsNXkTHxwYD171w7jhnFPiwb+Ujv//eoy6+O6YVrzFr9V2sWPxltsZD8bw6y6KuwYcGzcMvDbGlYxXPPefF8XQZ4s70Yax8Q6nZO3q7ok7+u4VFx2Vm874YQwfNaVwN+H6+XGWL44TDql4UcELA+PuO0bG3OIuvX4WgOdLHj8YH0/f8UJU7u0/eCeezprwmWrYOr5/ZKfoUhyOcMWy+HDBkvgwf+rWpkOc333zqExeWjWtbFdmrh9+XLjr+1PYeq9dc+fAJZeC6jeOfbttV7mfnP3mzHg3a5dao37VH2pXDJjrYtakuGl84Zag1t/oFIcUH3TJv53g+N9gg+ato83GNU8tSu+Qq6PFY5+tDGI771RL2tqi5vXlpxYld59/fcsdslbEmAm1PPjujargd7ttanzu9SqNHf1M1orYY/tiaP12DP7xjfFWRXuHOLTj2/HoYyOqpueqxlJ+67nCsrE1/dWBf6uGVQ+0W2lqWpXZxobxtcq9bufYrVhdXGrnzrF31swPsFqoyN0kdq+8RDo2nno5a9Zi5rjyGDoiP42NiRXFRp+2/+o1al8WV15SDL0XxD0PlJeM7VwlHxr37ntfZWh87r1XCI1Zh0yP0aOzZu73c5uSO1zrZNHkKC8Gx9vV/eFxjdrtEgN/cmAUChIXxX2Pjcm2n/fi5tsKkW3EjjHwl4dWDFdR1HynQ+OuH++SzU2PQX8uPrkr03q3uP6eK+Nf1/SL6y84qWK686YrY9Jvct/nw/eyMDhimy1qHnYiHxr3+d/hlaHx2b87S2jMuqFeo9h+/x7Rd/tsfvqYGJEdAm7SqqrYoPTBd4n3iuMM536z2xTHR54bD/+1OKTEFnH6yXtUDFdR1HTLPeLSoztkc7Pjrn9Wi6obbxJ9+veL+350WJzbp2fFdOEPj4/7ftYz9mv2QUyruPqT07Z59gC+krGRo0l0/noNDxXIVyoXb2+fVXyo3vIY9Y/RWbtJfPt7PaN7q6pbABq26hjnntwlW8fiGPHExEIQDp+3Na02zpk79tgYfE5N009jVPaa1bs9ZlVe2GkeG9RxvzX5jXcrh5Rr0KQOwzHNeCGevu7YePDZ4so2jA77/zBrF8wd/tO4us+J8chDQ7IH7A2PZ+/8YVx9yikxvFWryqEzPv6g8qozfPaato0fHHdgXHnENwoPsctNPzrqwLj58K1j648XVA6XuGnL4m9o89iquCkvfz8mlYx2trJl8e60mTH6zfw0PwuZ60fj7AJS/ry54yY1lP42bBk7bJS1K8dWXtt+K2LcP4sPtWsQXdrViwkV7yebps4vDEGRs3DO7IplEz4ojtmxKIY/MTn7Ps2iy0aLqvrlpxlVtzjNnlFYNrWGAmnqRnC8rln2ZgweXNzdbhbd9/mUYwJ32TOKRc8zH38mC3JTTz45ImtF7LFjLQ/Qq828ETH4luK4xt1j392zZkyKsa9lzXg1Bp/xv3FC/5LphjHZ1yKeu6GwbPBqQjL4/GwVu30za8b78V5p6UTRwgVRuS9u2TSK+8que1bd/vbQ3X+rcYzyCsvHxtWnDoyTz8tPf4upWWr9afvXyY47VIXeb1c9Nb6optD4zNLx3eALNu/pv8fNxbPavbaNao/VWa03HhkWI7N2+912WrOHx23boWp9M+Zl2+icmFbckLbcLsqyoSdKNdquQ2yTtRePmZwNJ7EoXvnXmBj2ZH7KfYPtdoye++5SMZW1L4zuNmv0y/FGRWv9KOu08vjiNYXG/bes88hw8DloFB07FEvqF8Z7xWfcfX2zymd6zH317RorkcdOrCp66Niu+D3m5/Pkgrabxc41DGfYsH3bymrhJZNmVAa5702aHOVj89PbMbPFZlHWObc956aumzcpVGlNfjv+VfHaiM5bF7e3JrHVFsWweGHMrfHEc3F8VFzeoFEU/gTkXlv56I/cZ63pqbJt20YxU49Jb0ctJR7wmVrTauO6OywOPD0/znBuOvmYKF7OqdIu1q9hOKUOvc4p9MlNBx6QLSxV4xBMq1tXxMTXs6rjvPWLO+oeceBpWb/Tu0XcMzAevO6iimnoIy9UBOhddtqy8jh/7pR7shZ8lpbF1LeKIWhu57Jx6+whdm2i49cKEd6H02dnVbv1omPb4tXNhrFD+2J7QTw6fhU1xwvejdv/MjauH5GbRr+fVdU3jK+3KZ7zLYl5lRtMqWWxoLi8/vq5PWTe2vZbHO/OKQbBy2J0efZ+itPTMyqrpj9847WKZXe9VSx5WhBvVT4fcH4M/3u1vmOqPvukMYVlwyr3yawpwfG6ZPHbcWf/PnFZMXDtfkacXnk0uZY23i8OKw6O+NoN8csRJU+kzpt0ewy4M9v4Gh0TvWu+V79m74+Jy47733gg6/71H5wavUsqPuDLq2Ec3LMYDb0Ztz+08qncxAceisez9hbf6Fg1pMzeR8SZxSu9z18bx902beWK3uULYujFA+O2bJSIRr2/FQcVD4I/bf86mDfq6RiatUtD77z8g/B6lITGZ952mdCYdcq8lx+NPpc8n20XraL//9ut5G6B1Vka04bfEkfeVoyodoyz/2flMHZV5j0zJoZl7WjRuHL7qdyOprwe5TUMhjjv9dezADinbfPsb0aDeOOvt8QPLstP1658AfWjMfHLW7Lq5E0OiON2KjSL8g/C61USGvf/zQ+Fxqx7VsyN8peKSW/92LAY9DbbIr5ZDFNnjI67Xq22t5s1Jm7/VzZ8Q4NOsV/JU7Aq90oz3o5xNYybvGDa21XDRbRsEoXIuX4smPhkXH7XsNw0JG6sPq5w7n3e/8j47MFCHaL7N6oqi7fK7eeLfylGlE/Mna6mFrw6JoYWD7E7blIVWlXecft2jC2WhpWaPiMq6yyaNcveJ3yO1qLauO62jG337hE775ebDuoZO1Q+dC7T9ZTYvDim+PJ34t3HCs0Nd+hW6JObunzzsMLCSu1ir123r9znfjSjmHJvGh32yNbV49jYa6XAOe0XS4s76jmxcaes337Hxu4nFH8Wma4Xxb6ds6rmj8fHq3cUmvDZqhfvTiiGoC/EoyXDtVRYMjPueyYLRpt9PQ4s2bZa79ChckiIheNfjJumlDwFtih3LvnY8NdiUja7dcdNK4e62GKbzSrbT74yo7Lit2jhW2/FP4oL27eI4m58bfvx5bDeJzlZO6a+8mxsWHUvFqvw1g29osvAQpi0+6m/idOLJRPVNd8qvrXvVoWT2hHnRquTC3vENr0uiF/3LOwp33ttVIx95dUYMvLV+LC4XTc/JP741OXxrZJbXWvrv7LNYo9DdqgMshaPHBA7nPin7GrNZnHcr38TZ3fbOBa/fHf85Iwb48msbLLzhcPiHydVVTjX/BkXx1ujn8m932diSPnbVYFW5x9F+Z/W4OF3JZ+l983j44buFU3WwOLZ6lLq5r343dHfj0sq9owdo9+vjojdKpavrPk2XWOfLbPT0eUT4oLuP4nbshPBrscOiEEnbB0tcqeUrz92bZx8zdis4rhzXDn0F3FMZXKc89IN0TH3+11ZkbzlbnHm//tW7Jwfd+mDV+P2Wx+Op4qlxM32jz88ck4cVLwDN+9T9X8++u92STyUb7baPy778V6VJ7v5K8BTn3ksfvfQhMpK5n0uuCPuO6JwqloRGlc+CC93ANDrhzFgrxpKJ6NpbLtX59i2hrt1qdmi2W5trJs5cXO/i2NgxY+rQ5x8wYHRJd9cMidGj58eL48ZE+XvVI0rvOPJF8SQ3qXB7ytx1n/9Lh7JN1vuFhf9YJfCvvDDaTFy0vQY/+Qr8UplqNs4el10UVz1zdJyxVr6V1ga00Y/GTf/ZXJhHOOcsjN/EXf+d2FH/eJvz43ef84SrHZlcf2Aw6Pblo2j0fKl8cboh+OsC5/MAt6InuddGdd3KwS8i//1+9j1oiwIr79JHHXakXHS3q1iyfjyuPL64VF8zla38y6PW7pVvdeK0LjyQXi5Y/Aex8T5u9e0UTaOrXfbLrapoSqTmo0bU/yfoi7ee+LeOHVo4Rd1+/17xuGlo54tnBUjnhodLxQ3msad4vIB+xTGIM5Z8trI6HvrhCyIbRbdj+wZR27fJJa+Mz5uvGd05cP0tjq0Twzat2pH+dojt8W5/8yOQvNDPhxfFl3bNoqGK5bH9InlMejW8ZXVu2XHfD/O/UZ2dXXOmDj9ivIsVG4SXQ/aN/rsvkk0fP/NePihp2JE9j43OaB33PBfVUNp5KuHR9z4+7guO8tu2XmfuPDgrSoecrdg8rNx6V0TsqrmRnHwaX3jlGxop7nPDom+D75dmGm8WfT97kHx3x2aRMN6y2Pu9FfjxpufivLsM25y0NFxQw/R8Zp68fmquxhZc13OHRK9uhaC0WUTb4/BF9QeHO/18+HRY6fCceGsf+wVg39b0VyFdtHjirtjr+Kx9YIpMe6R2+P1OfnNoVvs3qNbbJxFDx+/fG386uKsmveAK+NHp5VllftLYu7LQ6L8H+NiUe77dej+nejcsVXhmszyKTF64LHxSPZwoP0uGRkHdszWtXROTCsfEuPGTolFTbeMHbv3jh3aF49pl8S0B4+NW+4tjJXc4bS744QDso12+Ucxa+ywGPfPKdGgc8/YuaxTtMyux84tPyeuvqq8MMNaad9S1lRXS98aH2cMm1GoBK7XNPbda/vokTuuXDrjnXjo6ckxLgthdz6wW5y5TRrCfDhhdJxTHDc4p0XbdtFzh9bROrcrXDp/Zgx7fkZMLQ6rv/G2cem3Sx8qtySefHRU3JENJd5iq+3jzD03iRa5vgtnvBFXj3gnGx6iQRzQq1v0qQyt17bfKsx7Ky7848SKyupN99w7Lt1lDQ5mcz+/k3M/v7w9e3aP73+9okkdfbx0efS/9e/ZnOB4rZWGqqu0/Y9i9LATo+L3tCQsXaWNu8cNj/wmem+azRfVtX8cEn+ccnl8K5vLe/2GI6Ns4KvZ3Mpa7HtJ/PW2/0mC3zp/xl1Pib/ecUbsXhpyr47g+FMTHNdVaXC8atuecVM8cXxJCDXl4ejR+9as+rYmTeOIQTfH4P1W/rs57x/Xxn4/XsVQE3n1O8aAWsYOXvv+JcHxajTf84cx5JpvxbbZ+fTjA3rFdytLkVelfQx4aHD0M4ZqnQmO66o0OF61XY89K249vkOku56S4HeVmkfP834S13ervuOqa//cd+hyTNx/aVlsk20/sfy9uPmsy2Jg6bN/arBxj34x/OwdS973ohg56LI4aXjlpaKVrNwnYuSvz4iTirc9rNImcf6tF8TJ1YqoqJ3geM2UBser1iwOPqV3nLJ1eo/A9CceiNOH1n7/aNNtu8Xl3+sYm5feJ7libvx58L1xW9UjM2rUcreD47ojtyg8nC8z/cmH4vRHaxoYI7NFWVx32i7p+vIWTY1Blw+NUTVUOBdtdfDRMWj/0vB3cbxw791x6ehq1dTV1bZOVktw/Cm0/WGceuUxsWlFMPpOvHp577h3FcNUrHlwnNP2mDjhsh9Gh9ICiWqWzSmPv198TjxdUlW57Wl3x9EHbFlVtL+Sj+Ldv/w8britJMjNr+uS3LpW84Csj8ZeG7f84p6SgLwsel05MLq0r/0Ou2XThsS95wyMidk8a0dwvCaWxbgnno6rX6v9QeYttv9GXLp/62zYh1Ir4t0xL8SFxark2jRpF2cetWNUPmKnaMnsuOnul+KZ2lcdW+xZFgN2qfb/ubb9aiM4/sJUD44dnqwrGrWO7cr+Jy65/ZF4p7yG0PhT2u7UO2P04P+JztXv523QOg49/654sVpovFrNW0fn7qfE1Y+MjHceWsPQGL4stjw8ho+4IgYcsHIFUKPtvhU3P3RHjaFxXvMDfhgv5fpednB2x0Gp+i1jn2PPj389WfsD5z5t/9o1jDY77hZn/uqmGDO4KjSGL4PmrTePbsceE0PuuTIeWCk0Xp31Y+P228VRJ/eLYQ/9oobQuC5y32O7HaP/BT+Pf/2yJDTOq79JnHzV5fHAabvFjjWce+YfrNf/0p/HE9UC4HxFcLezfx4jLyhbuV/DzeOo3LpW7gNfIo1bRuc99onLB/RZKTTO23z/I+KGPh1jq+rHofWaRNnBR8SN1UPjvHot49v9+8blvbZduV9Ow1Yd4sjv9YkbqoXGeZvve0TcdVpZlLXIFhRl67urtgC38RZx9s/6xLl7tK4aKqOoRYfoe1rfaqFxXqPoevTxuc+3S3Suvr68xq2j+5G9a18nfIa6nNAjC43z1cb/zrGNS8y4J+644Mp4dsI7saxY4ViUr+598Z74c7XQOG/ib4+Ne+8dGbOqjbKYt2zO6zHuttPT0Dgvv64BF8XTL06Jj6uvK2/+lJj42EXVQuO88njknFNi6Kga+uXf46gr4xahMZ+7BrHz/vvEr7q3iy2qn6/Vbxb7dt87flVjaJxXLzbdZff47f/rHD3a1XBQmuu/5167xzXH1hAa5zVsHd//7t7xg47Ncke+1TRtE0f16lZz+Lu2/VjnqTj+D7R43uz4MF/4kPuD0WajlQ/g+XJQcfw5W74k5n2woOKhGhs0axnNa9rJ1irXd06hb9RvGm2+tkadcz5tf75oKo7/8yz+aF7My0bVaNS0eZ3/ZlT2q984Nm6+0mE3nwMVx1+cJYsWxoL8sG31GkXLpnW/slnZL6dh4ybRtK7FEEsWx9zF+aSofjRt1mjlQLhWy2PB/MW5vXNufY1y66trx8r1rWE/aqXi+MukXXQo6xQb5ndtS+fE9PLCw+dWa+uy2HmzQsnyx28Pj4l1uIswb9OuPaJ1Fm2sVb81eY/UiYrjtbd0yZJYWLF/bBAtNljDK40rVsTCj5cVhr1okOvfcE365/rmVpzvu/76DaNJnQ9N17Yf6wJDVcBXhOAYvjwEx/DlITiGLw/BMXx5CI7hy8FQFQAAAAAArJLgGAAAAACAhOAYAAAAAICE4BgAAAAAgITgGAAAAACAhOAYAAAAAICE4BgAAAAAgITgGAAAAACAhOAYAAAAAICE4BgAAAAAgITgGAAAAACAhOAYAAAAAICE4BgAAAAAgITgGAAAAACAhOAYAAAAAICE4BgAAAAAgITgGAAAAACAhOAYAAAAAICE4BgAAAAAgITgGAAAAACAhOAYAAAAAICE4BgAAAAAgITgGAAAAACAhOAYAAAAAICE4BgAAAAAgITgGAAAAACAhOAYAAAAAICE4BgAAAAAgITgGAAAAACAhOAYAAAAAICE4BgAAAAAgITgGAAAAADgP9x69etnrYIkOK5Xr2F88skn2RwAAAAAAF91+UR4w402LsxkkuB4vQYNYsUKwTEAAAAAwH+KfDFx06+1yeYKkuC4/vqNY/mK5dkcAAAAAABfdSs++SQ2ar91NleQBMeNN9wwli1dls0BAAAAAPBVt3z5J7HpNjtlcwVJcNy0ect82XGsWLEiWwIAAAAAwFdVfpiKVh06RvuOu2RLCpLguMH6DaPRhl+Ljz9enC0BAAAAAOCrasnyFdGhyz7R9GutsiUFSXCc13LjTWO9ho1jea4DAAAAAABfTfmxjdvttGfstHfPbEmVlYLjfNVxs43axMeLl2RLAAAAAAD4qlm/WevotP8hK1Ub560UHOc1b7lxbNiqbXy0cFG2BAAAAACAr4p6TVpEl4P/X2zTdZ9sSarG4DivZZvNolmrTWP+wsWGrQAAAAAA+ArID09Rb8ONouuhx0Xngw7Plq6s1uA4Lx8eb9R2i1jySb1YuHBRrFghQAYAAAAA+LL55JNPYvGy5dGm4+6xX58zVhka560yOM5r1rJ1tP36drFBizaxaOmKigB5ydKlFVXI+ZUBAAAAALBuySe3+eriZStWxJKly6NZ++1i9+98P7510o9j6y57F160Cut9sgbp7/JlS2Ph/A9i0YL5sezjhbEiN79ixdLsq8DnafGcKVkLWNd9PGdq1gLWdS+Pm5C1gHXd2BfHZS1gXbfZ15pmLeDzsl79+rHhRhvHhi3bRKv228Sm2+4Um2+/SzRpsVH2itVbo+AYAAAAAICvvtUOVQEAAAAAwH8WwTEAAAAAAAnBMQAAAAAAJSL+P4zYCazgq9WnAAAAAElFTkSuQmCC&quot;&gt;" style="rounded=0;whiteSpace=wrap;html=1;" vertex="1" parent="1">
          <mxGeometry x="300" y="1120" width="860" height="500" as="geometry" />
        </mxCell>
        <mxCell id="Nic7iLbEG9tSwwlaVDGV-6" value="" style="line;strokeWidth=2;direction=south;html=1;" vertex="1" parent="1">
          <mxGeometry x="830" y="310" width="10" height="780" as="geometry" />
        </mxCell>
        <mxCell id="Nic7iLbEG9tSwwlaVDGV-7" value="&lt;h1&gt;Photo 1&lt;/h1&gt;" style="rounded=0;whiteSpace=wrap;html=1;" vertex="1" parent="1">
          <mxGeometry x="10" y="300" width="800" height="390" as="geometry" />
        </mxCell>
        <mxCell id="Nic7iLbEG9tSwwlaVDGV-9" value="&lt;h1&gt;Quote 2&lt;/h1&gt;" style="rounded=0;whiteSpace=wrap;html=1;" vertex="1" parent="1">
          <mxGeometry x="10" y="710" width="800" height="80" as="geometry" />
        </mxCell>
        <mxCell id="Nic7iLbEG9tSwwlaVDGV-10" value="&lt;h1&gt;Text 2&lt;/h1&gt;" style="rounded=0;whiteSpace=wrap;html=1;" vertex="1" parent="1">
          <mxGeometry x="10" y="810" width="810" height="280" as="geometry" />
        </mxCell>
        <mxCell id="Nic7iLbEG9tSwwlaVDGV-11" value="&lt;h1&gt;Text 1&lt;/h1&gt;" style="rounded=0;whiteSpace=wrap;html=1;" vertex="1" parent="1">
          <mxGeometry x="860" y="300" width="560" height="110" as="geometry" />
        </mxCell>
        <mxCell id="Nic7iLbEG9tSwwlaVDGV-12" value="&lt;h1&gt;Photo 2&lt;/h1&gt;" style="rounded=0;whiteSpace=wrap;html=1;" vertex="1" parent="1">
          <mxGeometry x="860" y="430" width="560" height="470" as="geometry" />
        </mxCell>
        <mxCell id="Nic7iLbEG9tSwwlaVDGV-13" value="&lt;h1&gt;QR Code:&lt;/h1&gt;" style="rounded=0;whiteSpace=wrap;html=1;" vertex="1" parent="1">
          <mxGeometry x="860" y="920" width="560" height="170" as="geometry" />
        </mxCell>
        <mxCell id="Nic7iLbEG9tSwwlaVDGV-14" value="" style="rounded=0;whiteSpace=wrap;html=1;" vertex="1" parent="1">
          <mxGeometry x="1430" y="10" width="890" height="1610" as="geometry" />
        </mxCell>
        <mxCell id="Nic7iLbEG9tSwwlaVDGV-15" value="&lt;h1&gt;Quote 1&lt;/h1&gt;" style="rounded=0;whiteSpace=wrap;html=1;" vertex="1" parent="1">
          <mxGeometry x="10" y="90" width="1410" height="60" as="geometry" />
        </mxCell>
        <mxCell id="Nic7iLbEG9tSwwlaVDGV-17" value="" style="html=1;shadow=0;align=center;verticalAlign=middle;shape=mxgraph.arrows2.arrow;dy=1;dx=65;notch=0;strokeWidth=6;" vertex="1" parent="1">
          <mxGeometry x="1460" y="100" width="200" height="60" as="geometry" />
        </mxCell>
        <mxCell id="Nic7iLbEG9tSwwlaVDGV-18" value="&lt;h1&gt;&lt;span style=&quot;background-color: transparent; color: light-dark(rgb(0, 0, 0), rgb(255, 255, 255));&quot;&gt;Font:&amp;nbsp;&lt;/span&gt;&lt;span style=&quot;background-color: transparent;&quot;&gt;Walbaum Display (Bold) Size: 12&lt;/span&gt;&lt;/h1&gt;&lt;h1 style=&quot;text-align: right;&quot;&gt;Background Colour: DDB892&lt;/h1&gt;" style="rounded=0;whiteSpace=wrap;html=1;" vertex="1" parent="1">
          <mxGeometry x="1690" y="80" width="620" height="100" as="geometry" />
        </mxCell>
        <mxCell id="Nic7iLbEG9tSwwlaVDGV-20" value="" style="html=1;shadow=0;dashed=0;align=center;verticalAlign=middle;shape=mxgraph.arrows2.arrow;dy=1;dx=52.5;notch=0;strokeWidth=6;" vertex="1" parent="1">
          <mxGeometry x="1460" y="210" width="190" height="70" as="geometry" />
        </mxCell>
        <mxCell id="Nic7iLbEG9tSwwlaVDGV-21" value="&lt;h1&gt;Font:&amp;nbsp;Walbaum Display (Bold) Size: 20&lt;/h1&gt;&lt;h1&gt;Background Colour: DDB892&lt;/h1&gt;" style="rounded=0;whiteSpace=wrap;html=1;" vertex="1" parent="1">
          <mxGeometry x="1690" y="200" width="620" height="100" as="geometry" />
        </mxCell>
        <mxCell id="Nic7iLbEG9tSwwlaVDGV-22" value="" style="html=1;shadow=0;dashed=0;align=center;verticalAlign=middle;shape=mxgraph.arrows2.arrow;dy=1;dx=52.5;notch=0;strokeWidth=6;" vertex="1" parent="1">
          <mxGeometry x="1460" y="320" width="190" height="70" as="geometry" />
        </mxCell>
        <mxCell id="Nic7iLbEG9tSwwlaVDGV-23" value="&lt;h1&gt;Font:&amp;nbsp;Walbaum Display Size:&amp;nbsp;&lt;/h1&gt;&lt;h1&gt;Background Colour: DDB892&lt;/h1&gt;" style="rounded=0;whiteSpace=wrap;html=1;" vertex="1" parent="1">
          <mxGeometry x="1690" y="325" width="620" height="95" as="geometry" />
        </mxCell>
        <mxCell id="Nic7iLbEG9tSwwlaVDGV-24" value="" style="html=1;shadow=0;dashed=0;align=center;verticalAlign=middle;shape=mxgraph.arrows2.arrow;dy=1;dx=57.5;notch=0;strokeWidth=6;" vertex="1" parent="1">
          <mxGeometry x="1455" y="640" width="200" height="70" as="geometry" />
        </mxCell>
        <mxCell id="L_Eo6ieG5G36iukPiTaE-1" value="&lt;h1&gt;Font:&amp;nbsp;Walbaum Display&lt;/h1&gt;&lt;h1&gt;Background Colour: DDB892&lt;/h1&gt;" style="rounded=0;whiteSpace=wrap;html=1;" vertex="1" parent="1">
          <mxGeometry x="1680" y="645" width="630" height="105" as="geometry" />
        </mxCell>
        <mxCell id="L_Eo6ieG5G36iukPiTaE-2" value="" style="shape=singleArrow;whiteSpace=wrap;html=1;arrowWidth=0.06666666666666667;arrowSize=0.25142857142857145;strokeWidth=6;" vertex="1" parent="1">
          <mxGeometry x="1455" y="980" width="175" height="60" as="geometry" />
        </mxCell>
        <mxCell id="L_Eo6ieG5G36iukPiTaE-3" value="&lt;h1&gt;Font:&amp;nbsp;Walbaum Display&lt;/h1&gt;&lt;h1&gt;Background Colour: DDB892&lt;/h1&gt;" style="rounded=0;whiteSpace=wrap;html=1;" vertex="1" parent="1">
          <mxGeometry x="1680" y="957.5" width="620" height="105" as="geometry" />
        </mxCell>
        <mxCell id="L_Eo6ieG5G36iukPiTaE-4" value="&lt;h1&gt;Copyright:&lt;/h1&gt;&lt;h1&gt;Font: Walbaum Display&lt;/h1&gt;&lt;h1&gt;Background Color: DDB892&lt;/h1&gt;" style="rounded=0;whiteSpace=wrap;html=1;" vertex="1" parent="1">
          <mxGeometry x="1445" y="1130" width="860" height="470" as="geometry" />
        </mxCell>
        <mxCell id="URMwC90QeZ0fBGjWPQkM-1" value="&lt;h1&gt;Background Color for all: E6CCB2&lt;/h1&gt;" style="rounded=0;whiteSpace=wrap;html=1;" vertex="1" parent="1">
          <mxGeometry x="1694" y="440" width="616" height="180" as="geometry" />
        </mxCell>
      </root>
    </mxGraphModel>
  </diagram>
</mxfile>
